<?xml version="1.0" standalone="no"?>
<!DOCTYPE svg PUBLIC "-//W3C//DTD SVG 20010904//EN"
 "http://www.w3.org/TR/2001/REC-SVG-20010904/DTD/svg10.dtd">
<svg version="1.0" xmlns="http://www.w3.org/2000/svg"
 width="266.000000pt" height="266.000000pt" viewBox="0 0 266.000000 266.000000"
 preserveAspectRatio="xMidYMid meet">
<metadata>
Created by potrace 1.12, written by Peter Selinger 2001-2015
</metadata>
<g transform="translate(0.000000,266.000000) scale(0.100000,-0.100000)"
fill="#000000" stroke="none">
<path d="M0 1330 l0 -1330 1330 0 1330 0 0 1330 0 1330 -481 0 c-317 0 -478
-3 -474 -10 3 -5 1 -10 -4 -10 -6 0 -11 4 -11 9 0 6 -139 10 -340 11 -228 0
-340 -3 -340 -10 0 -5 -5 -10 -11 -10 -5 0 -7 5 -4 10 4 7 -163 10 -494 10
l-501 0 0 -1330z"/>
</g>
</svg>
